<?xml version="1.0" encoding="UTF-8" standalone="no"?>
<svg
   version="1.1"
   viewBox="-5 -10 128 128"
   id="svg2"
   width="128"
   height="128"
   xmlns:xlink="http://www.w3.org/1999/xlink"
   xmlns="http://www.w3.org/2000/svg"
   xmlns:svg="http://www.w3.org/2000/svg">
  <defs
     id="defs2">
    <linearGradient
       id="linearGradient2">
      <stop
         style="stop-color:#323248;stop-opacity:1;"
         offset="0"
         id="stop2" />
      <stop
         style="stop-color:#668db0;stop-opacity:1;"
         offset="1"
         id="stop3" />
    </linearGradient>
    <linearGradient
       xlink:href="#linearGradient2"
       id="linearGradient3"
       x1="9"
       y1="104"
       x2="109"
       y2="54"
       gradientUnits="userSpaceOnUse" />
  </defs>
  <rect
     style="fill:none;fill-opacity:1"
     id="rect3"
     width="128"
     height="128"
     x="-5"
     y="-10" />
  <path
     d="M 35.746,4 C 20.973,4 9,15.973 9,30.746 V 77.254 C 9,92.027 20.973,104 35.746,104 H 82.254 C 97.027,104 109,92.027 109,77.254 V 30.746 C 109,15.973 97.027,4 82.254,4 Z m -19.77,26.746 c 0,-10.918 8.8516,-19.77 19.77,-19.77 h 46.508 c 10.918,0 19.77,8.8516 19.77,19.77 v 46.508 c 0,10.918 -8.8516,19.77 -19.77,19.77 H 35.746 c -10.918,0 -19.77,-8.8516 -19.77,-19.77 z m 45.609,0.37891 c -1.082,-2.1055 -4.0898,-2.1055 -5.1719,0 l -4.3242,8.4219 c -1.668,3.2383 -4.3047,5.875 -7.543,7.543 l -8.4219,4.3242 c -2.1055,1.082 -2.1055,4.0898 0,5.1719 l 8.4219,4.3242 c 3.2383,1.668 5.875,4.3047 7.543,7.543 l 4.3242,8.4219 c 1.082,2.1055 4.0898,2.1055 5.1719,0 l 4.3242,-8.4219 c 1.668,-3.2383 4.3047,-5.875 7.543,-7.543 l 8.4219,-4.3242 c 2.1055,-1.082 2.1055,-4.0898 0,-5.1719 l -8.4219,-4.3242 c -3.2383,-1.668 -5.875,-4.3047 -7.543,-7.543 z"
     fill-rule="evenodd"
     id="path1"
     style="fill:url(#linearGradient3);fill-opacity:1" />
</svg>
